<svg xmlns="http://www.w3.org/2000/svg" xmlns:xlink="http://www.w3.org/1999/xlink" width="1824" height="608" viewBox="0 0 1824 608">
  <defs>
    <clipPath id="clip-Logo_Module_TiengViet_White">
      <rect width="1824" height="608"/>
    </clipPath>
  </defs>
  <g id="Logo_Module_TiengViet_White" clip-path="url(#clip-Logo_Module_TiengViet_White)">
    <g id="Group_42284" data-name="Group 42284" transform="translate(9)">
      <g id="icon">
        <path id="Path_1" data-name="Path 1" d="M432.178,55.512a280.284,280.284,0,0,0-258.237,0L303.05,184.621,422.379,303.95,551.507,174.822A281.222,281.222,0,0,0,432.178,55.512Z" fill="#ff9500"/>
        <path id="Path_2" data-name="Path 2" d="M303,423.374,183.689,304.066,54.56,433.173A280,280,0,0,0,432.126,552.5Z" fill="#4cd964"/>
        <path id="Path_3" data-name="Path 3" d="M551.508,174.936,422.379,304.064l-119.33,119.31L432.179,552.5A280.015,280.015,0,0,0,551.488,174.936Z" fill="#007aff"/>
        <path id="Path_4" data-name="Path 4" d="M173.889,55.512C36.741,126.866-16.674,295.851,54.56,433.058L183.688,303.95,303,184.62Z" fill="#ff3b30"/>
        <rect id="Rectangle_12" data-name="Rectangle 12" width="168.747" height="168.747" transform="translate(183.711 304.001) rotate(-45)" fill="#393a3d"/>
        <path id="Path_5" data-name="Path 5" d="M218.625,338.962,55.18,432.514,183.689,304.026Z" opacity="0.15" style="isolation: isolate"/>
        <path id="Path_6" data-name="Path 6" d="M268.08,219.557,174.528,56.112,303.037,184.621Z" opacity="0.15" style="isolation: isolate"/>
        <path id="Path_7" data-name="Path 7" d="M387.442,269.034l163.445-93.552L422.379,303.991Z" opacity="0.15" style="isolation: isolate"/>
        <path id="Path_8" data-name="Path 8" d="M337.989,388.437l93.552,163.445L303.031,423.374Z" opacity="0.15" style="isolation: isolate"/>
        <path id="Path_10" data-name="Path 10" d="M303.024,206.956l97.052,97.054-97.052,97.029L205.993,304.01Z" fill="#fff"/>
      </g>
      <g id="Group_42283" data-name="Group 42283" transform="translate(35.783)">
        <path id="Path_63006" data-name="Path 63006" d="M688.967,411h-37.75V231.25h37.75v86.5l70.75-86.5h45.25l-72.25,88L805.467,411h-48.25l-68.25-89.25Z" fill="#fff"/>
        <path id="Path_63007" data-name="Path 63007" d="M954.967,231.25V262.5h-62q-20.25,0-31.375,10.625T850.467,304.5h104.5v31.25h-104.5q0,22.5,8.25,31.625t15.375,10.75a87.858,87.858,0,0,0,18.875,1.625h62V411h-63.5q-18,0-30.625-3.125T835.467,395.25A71.452,71.452,0,0,1,813.842,364a118.968,118.968,0,0,1-6.375-39.5l.5-10.75a89.488,89.488,0,0,1,2-19,134,134,0,0,1,5-17.5,73.287,73.287,0,0,1,7-14.5,86.915,86.915,0,0,1,11.75-14,46.785,46.785,0,0,1,18.75-11.375,112.986,112.986,0,0,1,20.625-4.875,150.491,150.491,0,0,1,19.375-1.25Zm-76.706-15.5h-17L881.717,181h29.25l21.316,34.75h-17l-18.816-18Z" fill="#fff"/>
        <path id="Path_63008" data-name="Path 63008" d="M1140.463,411h-39.25V263h-57.5V231.75h154.75V263h-58Z" fill="#fff"/>
        <path id="Path_63009" data-name="Path 63009" d="M1210.71,281.5q5.748-19.746,15.5-29.25t18-13.875a80.143,80.143,0,0,1,17.375-6.75,111.409,111.409,0,0,1,16.375-3.125,164.72,164.72,0,0,1,16.75-.75q18,0,28.375,2.625t14.25,3.875a71.667,71.667,0,0,1,11,5.125,48.433,48.433,0,0,1,12.625,9.875q12.75,12.252,18.5,31.875a142.057,142.057,0,0,1,5.75,40.125,146.373,146.373,0,0,1-5.75,40.375q-5.754,20.127-18.875,32.375a67.483,67.483,0,0,1-30.875,16.5,148.052,148.052,0,0,1-34.5,4.25,136.664,136.664,0,0,1-32.25-3.75,59.144,59.144,0,0,1-9.625-2.625,89.58,89.58,0,0,1-10.875-5.125,64.629,64.629,0,0,1-13.125-9.625,58.021,58.021,0,0,1-11.25-14.375q-4.629-8.25-8.75-22.75t-4.125-35.75A137.027,137.027,0,0,1,1210.71,281.5Zm38.5,12.93a108.818,108.818,0,0,0-3,26.445q0,14.226,4.875,33.559t19.375,24.453q14.5,5.115,24.5,5.113a63.846,63.846,0,0,0,18.75-2.746q21.5-7.734,26.75-32.684a101.2,101.2,0,0,0,3.5-26.945q0-14.472-2.375-23.578t-3.25-11.6a55.2,55.2,0,0,0-3.75-7.609,39.6,39.6,0,0,0-8.125-9.856,30.434,30.434,0,0,0-11.125-6.613,73.18,73.18,0,0,0-10.625-2.617,62.6,62.6,0,0,0-28,2Q1257.21,268.73,1249.21,294.43Z" fill="#fff"/>
        <path id="Path_63010" data-name="Path 63010" d="M1425.959,411h-40l75.5-179.75h40L1578.209,411h-42l-16.5-43h-78.25Zm27.75-74.75h53.75l-27.25-68.75Zm25.5-121.5h-17.25l24-34.75h36Z" fill="#fff"/>
        <path id="Path_63011" data-name="Path 63011" d="M1629.707,411h-38.75V231.25h48l73.25,129.5-1.5-129.5h38V411h-43.5l-77-135.75Z" fill="#fff"/>
        <path id="Path_63012" data-name="Path 63012" d="M946.3,187.924h-17.25l24-34.75h36Z" transform="translate(0 4.076)" fill="#fff"/>
      </g>
    </g>
  </g>
</svg>
